<?xml version="1.0" standalone="no"?>
<!DOCTYPE svg PUBLIC "-//W3C//DTD SVG 20010904//EN"
 "http://www.w3.org/TR/2001/REC-SVG-20010904/DTD/svg10.dtd">
<svg version="1.0" xmlns="http://www.w3.org/2000/svg"
 width="1280.000000pt" height="905.000000pt" viewBox="0 0 1280.000000 905.000000"
 preserveAspectRatio="xMidYMid meet">
<metadata>
Created by potrace 1.15, written by Peter Selinger 2001-2017
</metadata>
<g transform="translate(0.000000,905.000000) scale(0.100000,-0.100000)"
fill="#000000" stroke="none">
<path d="M8070 8823 c-130 -4 -455 -23 -750 -43 -157 -11 -384 -24 -505 -30
-568 -27 -970 -93 -2090 -341 -731 -163 -1032 -221 -1343 -260 -84 -10 -157
-21 -162 -24 -16 -10 -59 26 -76 60 -15 32 -14 38 30 174 57 173 59 210 12
257 -28 28 -42 34 -76 34 -52 0 -95 -25 -114 -65 -8 -16 -33 -90 -57 -163 -36
-113 -46 -133 -66 -138 -29 -8 -41 -48 -21 -72 13 -15 -4 -74 -159 -552 -180
-553 -411 -1263 -743 -2285 -323 -997 -297 -923 -328 -937 -32 -16 -40 -43
-18 -66 14 -16 4 -51 -104 -382 -65 -201 -204 -629 -309 -952 -105 -324 -277
-852 -382 -1175 -542 -1670 -494 -1512 -478 -1557 36 -100 168 -110 219 -15 8
14 77 224 581 1777 332 1022 569 1751 631 1942 33 102 65 202 71 223 6 25 18
41 36 50 14 6 30 21 35 33 16 35 85 68 146 69 36 0 112 18 225 54 967 301
2278 469 3889 497 212 4 386 5 386 2 0 -3 -69 -66 -154 -142 -271 -240 -322
-345 -203 -417 58 -35 163 -76 255 -100 156 -40 301 -53 587 -52 312 1 478 12
1230 88 908 91 1247 115 1655 115 257 0 490 -12 672 -35 149 -19 172 -19 190
3 10 11 21 68 32 163 56 493 186 989 369 1416 49 113 170 352 226 447 50 85
192 277 290 393 34 40 61 75 61 77 0 2 -10 2 -22 -2 -21 -5 -22 -4 -8 14 105
137 263 314 427 479 191 193 272 311 309 455 53 209 -108 346 -471 401 -115
18 -618 18 -800 1 -404 -39 -746 -87 -1160 -164 -148 -27 -367 -67 -485 -89
-370 -69 -487 -83 -869 -104 -93 -6 -113 -4 -108 7 79 175 124 326 143 478 8
63 21 158 29 210 15 107 8 140 -40 178 -72 57 -278 78 -635 65z m-4900 -712
c29 -23 29 -25 -1 -301 -116 -1084 -481 -2168 -1079 -3210 -43 -74 -79 -144
-81 -155 -4 -19 -115 -92 -125 -82 -5 5 58 205 508 1587 426 1313 543 1673
636 1962 43 132 72 209 82 211 27 8 35 7 60 -12z"/>
</g>
</svg>
